<svg xmlns="http://www.w3.org/2000/svg" xmlns:xlink="http://www.w3.org/1999/xlink" width="200" zoomAndPan="magnify" viewBox="0 0 150 46.499999" height="62" preserveAspectRatio="xMidYMid meet" version="1.0"><defs><g/></defs><g fill="#ffffff" fill-opacity="1"><g transform="translate(30.218763, 26.712764)"><g><path d="M 7.46875 -2.40625 C 7.25 -1.570312 6.863281 -0.929688 6.3125 -0.484375 C 5.769531 -0.046875 5.007812 0.171875 4.03125 0.171875 C 1.65625 0.0976562 0.46875 -1.273438 0.46875 -3.953125 C 0.46875 -6.628906 1.664062 -7.976562 4.0625 -8 C 6.5625 -8 7.738281 -6.457031 7.59375 -3.375 L 2.5 -3.375 C 2.582031 -2.164062 3.101562 -1.5625 4.0625 -1.5625 C 4.519531 -1.5625 4.945312 -1.75 5.34375 -2.125 C 5.519531 -2.3125 5.742188 -2.40625 6.015625 -2.40625 Z M 4.03125 -6.375 C 3.175781 -6.375 2.675781 -5.847656 2.53125 -4.796875 L 5.5 -4.796875 C 5.375 -5.847656 4.882812 -6.375 4.03125 -6.375 Z M 4.03125 -6.375 "/></g></g></g><g fill="#ffffff" fill-opacity="1"><g transform="translate(39.472346, 26.712764)"><g><path d="M 7.234375 0 L 6.21875 0 C 5.5625 -0.0507812 5.234375 -0.378906 5.234375 -0.984375 L 5.234375 -5.03125 C 5.203125 -5.84375 4.75 -6.25 3.875 -6.25 C 2.988281 -6.25 2.539062 -5.84375 2.53125 -5.03125 L 2.53125 0 L 0.515625 0 L 0.515625 -4.625 C 0.515625 -6.875 1.644531 -8 3.90625 -8 C 6.132812 -8 7.242188 -6.875 7.234375 -4.625 Z M 7.234375 0 "/></g></g></g><g fill="#ffffff" fill-opacity="1"><g transform="translate(48.339169, 26.712764)"><g><path d="M 4.03125 -8 C 6.425781 -8 7.625 -6.632812 7.625 -3.90625 C 7.625 -1.1875 6.425781 0.171875 4.03125 0.171875 C 1.65625 0.171875 0.46875 -1.1875 0.46875 -3.90625 C 0.46875 -6.632812 1.65625 -8 4.03125 -8 Z M 4.03125 -6.25 C 2.988281 -6.25 2.46875 -5.46875 2.46875 -3.90625 C 2.488281 -2.363281 3.003906 -1.59375 4.015625 -1.59375 C 5.023438 -1.59375 5.535156 -2.378906 5.546875 -3.953125 C 5.546875 -5.484375 5.039062 -6.25 4.03125 -6.25 Z M 4.03125 -6.25 "/></g></g></g><g fill="#ffffff" fill-opacity="1"><g transform="translate(57.65225, 26.712764)"><g><path d="M 3.875 -6.25 C 2.988281 -6.25 2.539062 -5.84375 2.53125 -5.03125 L 2.53125 0 L 0.515625 0 L 0.515625 -4.625 C 0.515625 -6.875 1.644531 -8 3.90625 -8 C 4.90625 -8 5.6875 -7.773438 6.25 -7.328125 C 6.8125 -7.753906 7.597656 -7.96875 8.609375 -7.96875 C 10.847656 -7.96875 11.960938 -6.84375 11.953125 -4.59375 L 11.953125 0.03125 L 10.9375 0.03125 C 10.28125 -0.0195312 9.953125 -0.347656 9.953125 -0.953125 L 9.953125 -5 C 9.910156 -5.8125 9.453125 -6.21875 8.578125 -6.21875 C 7.691406 -6.21875 7.242188 -5.8125 7.234375 -5 L 7.234375 0 L 5.234375 0 L 5.234375 -5.03125 C 5.203125 -5.84375 4.75 -6.25 3.875 -6.25 Z M 3.875 -6.25 "/></g></g></g><g fill="#ffffff" fill-opacity="1"><g transform="translate(71.487409, 26.712764)"><g><path d="M 7.46875 -2.40625 C 7.25 -1.570312 6.863281 -0.929688 6.3125 -0.484375 C 5.769531 -0.046875 5.007812 0.171875 4.03125 0.171875 C 1.65625 0.0976562 0.46875 -1.273438 0.46875 -3.953125 C 0.46875 -6.628906 1.664062 -7.976562 4.0625 -8 C 6.5625 -8 7.738281 -6.457031 7.59375 -3.375 L 2.5 -3.375 C 2.582031 -2.164062 3.101562 -1.5625 4.0625 -1.5625 C 4.519531 -1.5625 4.945312 -1.75 5.34375 -2.125 C 5.519531 -2.3125 5.742188 -2.40625 6.015625 -2.40625 Z M 4.03125 -6.375 C 3.175781 -6.375 2.675781 -5.847656 2.53125 -4.796875 L 5.5 -4.796875 C 5.375 -5.847656 4.882812 -6.375 4.03125 -6.375 Z M 4.03125 -6.375 "/></g></g></g><g fill="#ffffff" fill-opacity="1"><g transform="translate(80.740992, 26.712764)"><g><path d="M 7.234375 0 L 6.21875 0 C 5.5625 -0.0507812 5.234375 -0.378906 5.234375 -0.984375 L 5.234375 -5.03125 C 5.203125 -5.84375 4.75 -6.25 3.875 -6.25 C 2.988281 -6.25 2.539062 -5.84375 2.53125 -5.03125 L 2.53125 0 L 0.515625 0 L 0.515625 -4.625 C 0.515625 -6.875 1.644531 -8 3.90625 -8 C 6.132812 -8 7.242188 -6.875 7.234375 -4.625 Z M 7.234375 0 "/></g></g></g><g fill="#b074d4" fill-opacity="1"><g transform="translate(89.615243, 26.712764)"><g><path d="M 1.15625 -1.5625 L 2.203125 -1.5625 L 2.203125 0 L 0.515625 0 L 0.515625 -0.984375 C 0.515625 -1.367188 0.726562 -1.5625 1.15625 -1.5625 Z M 1.15625 -1.5625 "/></g></g></g><g fill="#b074d4" fill-opacity="1"><g transform="translate(93.602984, 26.712764)"><g><path d="M 4.03125 -8 C 6.425781 -8 7.625 -6.632812 7.625 -3.90625 C 7.625 -1.1875 6.425781 0.171875 4.03125 0.171875 C 1.65625 0.171875 0.46875 -1.1875 0.46875 -3.90625 C 0.46875 -6.632812 1.65625 -8 4.03125 -8 Z M 4.03125 -6.25 C 2.988281 -6.25 2.46875 -5.46875 2.46875 -3.90625 C 2.488281 -2.363281 3.003906 -1.59375 4.015625 -1.59375 C 5.023438 -1.59375 5.535156 -2.378906 5.546875 -3.953125 C 5.546875 -5.484375 5.039062 -6.25 4.03125 -6.25 Z M 4.03125 -6.25 "/></g></g></g><g fill="#b074d4" fill-opacity="1"><g transform="translate(102.916066, 26.712764)"><g><path d="M 7.234375 0 L 6.21875 0 C 5.5625 -0.0507812 5.234375 -0.378906 5.234375 -0.984375 L 5.234375 -5.03125 C 5.203125 -5.84375 4.75 -6.25 3.875 -6.25 C 2.988281 -6.25 2.539062 -5.84375 2.53125 -5.03125 L 2.53125 0 L 0.515625 0 L 0.515625 -4.625 C 0.515625 -6.875 1.644531 -8 3.90625 -8 C 6.132812 -8 7.242188 -6.875 7.234375 -4.625 Z M 7.234375 0 "/></g></g></g><g fill="#b074d4" fill-opacity="1"><g transform="translate(111.782889, 26.712764)"><g><path d="M 7.46875 -2.40625 C 7.25 -1.570312 6.863281 -0.929688 6.3125 -0.484375 C 5.769531 -0.046875 5.007812 0.171875 4.03125 0.171875 C 1.65625 0.0976562 0.46875 -1.273438 0.46875 -3.953125 C 0.46875 -6.628906 1.664062 -7.976562 4.0625 -8 C 6.5625 -8 7.738281 -6.457031 7.59375 -3.375 L 2.5 -3.375 C 2.582031 -2.164062 3.101562 -1.5625 4.0625 -1.5625 C 4.519531 -1.5625 4.945312 -1.75 5.34375 -2.125 C 5.519531 -2.3125 5.742188 -2.40625 6.015625 -2.40625 Z M 4.03125 -6.375 C 3.175781 -6.375 2.675781 -5.847656 2.53125 -4.796875 L 5.5 -4.796875 C 5.375 -5.847656 4.882812 -6.375 4.03125 -6.375 Z M 4.03125 -6.375 "/></g></g></g></svg>