<svg xmlns="http://www.w3.org/2000/svg" xmlns:xlink="http://www.w3.org/1999/xlink" width="200" zoomAndPan="magnify" viewBox="0 0 150 46.499999" height="62" preserveAspectRatio="xMidYMid meet" version="1.0"><defs><g/></defs><g fill="#ffffff" fill-opacity="1"><g transform="translate(20.2228, 28.938828)"><g><path d="M 11.953125 -3.859375 C 11.597656 -2.523438 10.976562 -1.5 10.09375 -0.78125 C 9.21875 -0.0703125 8.003906 0.28125 6.453125 0.28125 C 2.640625 0.15625 0.734375 -2.046875 0.734375 -6.328125 C 0.734375 -10.597656 2.65625 -12.75 6.5 -12.78125 C 10.5 -12.78125 12.378906 -10.320312 12.140625 -5.40625 L 4 -5.40625 C 4.125 -3.46875 4.957031 -2.5 6.5 -2.5 C 7.226562 -2.5 7.910156 -2.800781 8.546875 -3.40625 C 8.828125 -3.707031 9.179688 -3.859375 9.609375 -3.859375 Z M 6.453125 -10.1875 C 5.085938 -10.1875 4.285156 -9.34375 4.046875 -7.65625 L 8.78125 -7.65625 C 8.59375 -9.34375 7.816406 -10.1875 6.453125 -10.1875 Z M 6.453125 -10.1875 "/></g></g></g><g fill="#ffffff" fill-opacity="1"><g transform="translate(35.014742, 28.938828)"><g><path d="M 11.5625 0 L 9.953125 0 C 8.898438 -0.0820312 8.375 -0.609375 8.375 -1.578125 L 8.375 -8.046875 C 8.3125 -9.347656 7.582031 -10 6.1875 -10 C 4.769531 -10 4.054688 -9.347656 4.046875 -8.046875 L 4.046875 0 L 0.828125 0 L 0.828125 -7.40625 C 0.828125 -10.988281 2.628906 -12.78125 6.234375 -12.78125 C 9.804688 -12.78125 11.582031 -10.988281 11.5625 -7.40625 Z M 11.5625 0 "/></g></g></g><g fill="#ffffff" fill-opacity="1"><g transform="translate(49.188428, 28.938828)"><g><path d="M 6.453125 -12.78125 C 10.273438 -12.78125 12.1875 -10.597656 12.1875 -6.234375 C 12.1875 -1.890625 10.273438 0.28125 6.453125 0.28125 C 2.640625 0.28125 0.734375 -1.890625 0.734375 -6.234375 C 0.734375 -10.597656 2.640625 -12.78125 6.453125 -12.78125 Z M 6.453125 -10 C 4.785156 -10 3.953125 -8.742188 3.953125 -6.234375 C 3.984375 -3.773438 4.804688 -2.546875 6.421875 -2.546875 C 8.023438 -2.546875 8.84375 -3.804688 8.875 -6.328125 C 8.875 -8.773438 8.066406 -10 6.453125 -10 Z M 6.453125 -10 "/></g></g></g><g fill="#ffffff" fill-opacity="1"><g transform="translate(64.075489, 28.938828)"><g><path d="M 6.1875 -10 C 4.769531 -10 4.054688 -9.347656 4.046875 -8.046875 L 4.046875 0 L 0.828125 0 L 0.828125 -7.40625 C 0.828125 -10.988281 2.628906 -12.78125 6.234375 -12.78125 C 7.835938 -12.78125 9.09375 -12.421875 10 -11.703125 C 10.882812 -12.390625 12.132812 -12.734375 13.75 -12.734375 C 17.332031 -12.734375 19.117188 -10.941406 19.109375 -7.359375 L 19.109375 0.046875 L 17.46875 0.046875 C 16.414062 -0.0351562 15.890625 -0.554688 15.890625 -1.515625 L 15.890625 -8 C 15.828125 -9.300781 15.097656 -9.953125 13.703125 -9.953125 C 12.296875 -9.953125 11.582031 -9.300781 11.5625 -8 L 11.5625 0 L 8.375 0 L 8.375 -8.046875 C 8.3125 -9.347656 7.582031 -10 6.1875 -10 Z M 6.1875 -10 "/></g></g></g><g fill="#ffffff" fill-opacity="1"><g transform="translate(86.191494, 28.938828)"><g><path d="M 11.953125 -3.859375 C 11.597656 -2.523438 10.976562 -1.5 10.09375 -0.78125 C 9.21875 -0.0703125 8.003906 0.28125 6.453125 0.28125 C 2.640625 0.15625 0.734375 -2.046875 0.734375 -6.328125 C 0.734375 -10.597656 2.65625 -12.75 6.5 -12.78125 C 10.5 -12.78125 12.378906 -10.320312 12.140625 -5.40625 L 4 -5.40625 C 4.125 -3.46875 4.957031 -2.5 6.5 -2.5 C 7.226562 -2.5 7.910156 -2.800781 8.546875 -3.40625 C 8.828125 -3.707031 9.179688 -3.859375 9.609375 -3.859375 Z M 6.453125 -10.1875 C 5.085938 -10.1875 4.285156 -9.34375 4.046875 -7.65625 L 8.78125 -7.65625 C 8.59375 -9.34375 7.816406 -10.1875 6.453125 -10.1875 Z M 6.453125 -10.1875 "/></g></g></g><g fill="#ffffff" fill-opacity="1"><g transform="translate(100.983436, 28.938828)"><g><path d="M 11.5625 0 L 9.953125 0 C 8.898438 -0.0820312 8.375 -0.609375 8.375 -1.578125 L 8.375 -8.046875 C 8.3125 -9.347656 7.582031 -10 6.1875 -10 C 4.769531 -10 4.054688 -9.347656 4.046875 -8.046875 L 4.046875 0 L 0.828125 0 L 0.828125 -7.40625 C 0.828125 -10.988281 2.628906 -12.78125 6.234375 -12.78125 C 9.804688 -12.78125 11.582031 -10.988281 11.5625 -7.40625 Z M 11.5625 0 "/></g></g></g><g fill="#b074d4" fill-opacity="1"><g transform="translate(114.407415, 33.583962)"><g><path d="M 3.5 -6.9375 C 5.570312 -6.9375 6.609375 -5.75 6.609375 -3.375 C 6.609375 -1.019531 5.570312 0.15625 3.5 0.15625 C 1.4375 0.15625 0.40625 -1.019531 0.40625 -3.375 C 0.40625 -5.75 1.4375 -6.9375 3.5 -6.9375 Z M 3.5 -5.421875 C 2.59375 -5.421875 2.140625 -4.738281 2.140625 -3.375 C 2.160156 -2.039062 2.609375 -1.375 3.484375 -1.375 C 4.347656 -1.375 4.789062 -2.0625 4.8125 -3.4375 C 4.8125 -4.757812 4.375 -5.421875 3.5 -5.421875 Z M 3.5 -5.421875 "/></g></g></g><g fill="#b074d4" fill-opacity="1"><g transform="translate(122.479693, 33.583962)"><g><path d="M 6.265625 0 L 5.390625 0 C 4.828125 -0.0390625 4.546875 -0.328125 4.546875 -0.859375 L 4.546875 -4.359375 C 4.503906 -5.066406 4.109375 -5.421875 3.359375 -5.421875 C 2.585938 -5.421875 2.195312 -5.066406 2.1875 -4.359375 L 2.1875 0 L 0.453125 0 L 0.453125 -4.015625 C 0.453125 -5.960938 1.425781 -6.9375 3.375 -6.9375 C 5.3125 -6.9375 6.273438 -5.960938 6.265625 -4.015625 Z M 6.265625 0 "/></g></g></g><g fill="#b074d4" fill-opacity="1"><g transform="translate(130.165187, 33.583962)"><g><path d="M 6.484375 -2.09375 C 6.285156 -1.363281 5.945312 -0.804688 5.46875 -0.421875 C 5 -0.0351562 4.34375 0.15625 3.5 0.15625 C 1.4375 0.0820312 0.40625 -1.113281 0.40625 -3.4375 C 0.40625 -5.75 1.441406 -6.914062 3.515625 -6.9375 C 5.691406 -6.9375 6.710938 -5.601562 6.578125 -2.9375 L 2.171875 -2.9375 C 2.234375 -1.882812 2.679688 -1.359375 3.515625 -1.359375 C 3.910156 -1.359375 4.285156 -1.519531 4.640625 -1.84375 C 4.785156 -2.007812 4.976562 -2.09375 5.21875 -2.09375 Z M 3.5 -5.53125 C 2.757812 -5.53125 2.320312 -5.070312 2.1875 -4.15625 L 4.765625 -4.15625 C 4.660156 -5.070312 4.238281 -5.53125 3.5 -5.53125 Z M 3.5 -5.53125 "/></g></g></g></svg>