<svg xmlns="http://www.w3.org/2000/svg" xmlns:xlink="http://www.w3.org/1999/xlink" width="200" zoomAndPan="magnify" viewBox="0 0 150 46.499999" height="62" preserveAspectRatio="xMidYMid meet" version="1.0"><defs><g/></defs><g fill="#ffffff" fill-opacity="1"><g transform="translate(3.420657, 28.938828)"><g><path d="M 11.953125 -3.859375 C 11.597656 -2.523438 10.976562 -1.5 10.09375 -0.78125 C 9.21875 -0.0703125 8.003906 0.28125 6.453125 0.28125 C 2.640625 0.15625 0.734375 -2.046875 0.734375 -6.328125 C 0.734375 -10.597656 2.65625 -12.75 6.5 -12.78125 C 10.5 -12.78125 12.378906 -10.320312 12.140625 -5.40625 L 4 -5.40625 C 4.125 -3.46875 4.957031 -2.5 6.5 -2.5 C 7.226562 -2.5 7.910156 -2.800781 8.546875 -3.40625 C 8.828125 -3.707031 9.179688 -3.859375 9.609375 -3.859375 Z M 6.453125 -10.1875 C 5.085938 -10.1875 4.285156 -9.34375 4.046875 -7.65625 L 8.78125 -7.65625 C 8.59375 -9.34375 7.816406 -10.1875 6.453125 -10.1875 Z M 6.453125 -10.1875 "/></g></g></g><g fill="#ffffff" fill-opacity="1"><g transform="translate(18.212599, 28.938828)"><g><path d="M 11.5625 0 L 9.953125 0 C 8.898438 -0.0820312 8.375 -0.609375 8.375 -1.578125 L 8.375 -8.046875 C 8.3125 -9.347656 7.582031 -10 6.1875 -10 C 4.769531 -10 4.054688 -9.347656 4.046875 -8.046875 L 4.046875 0 L 0.828125 0 L 0.828125 -7.40625 C 0.828125 -10.988281 2.628906 -12.78125 6.234375 -12.78125 C 9.804688 -12.78125 11.582031 -10.988281 11.5625 -7.40625 Z M 11.5625 0 "/></g></g></g><g fill="#ffffff" fill-opacity="1"><g transform="translate(32.386285, 28.938828)"><g><path d="M 6.453125 -12.78125 C 10.273438 -12.78125 12.1875 -10.597656 12.1875 -6.234375 C 12.1875 -1.890625 10.273438 0.28125 6.453125 0.28125 C 2.640625 0.28125 0.734375 -1.890625 0.734375 -6.234375 C 0.734375 -10.597656 2.640625 -12.78125 6.453125 -12.78125 Z M 6.453125 -10 C 4.785156 -10 3.953125 -8.742188 3.953125 -6.234375 C 3.984375 -3.773438 4.804688 -2.546875 6.421875 -2.546875 C 8.023438 -2.546875 8.84375 -3.804688 8.875 -6.328125 C 8.875 -8.773438 8.066406 -10 6.453125 -10 Z M 6.453125 -10 "/></g></g></g><g fill="#ffffff" fill-opacity="1"><g transform="translate(47.273346, 28.938828)"><g><path d="M 6.1875 -10 C 4.769531 -10 4.054688 -9.347656 4.046875 -8.046875 L 4.046875 0 L 0.828125 0 L 0.828125 -7.40625 C 0.828125 -10.988281 2.628906 -12.78125 6.234375 -12.78125 C 7.835938 -12.78125 9.09375 -12.421875 10 -11.703125 C 10.882812 -12.390625 12.132812 -12.734375 13.75 -12.734375 C 17.332031 -12.734375 19.117188 -10.941406 19.109375 -7.359375 L 19.109375 0.046875 L 17.46875 0.046875 C 16.414062 -0.0351562 15.890625 -0.554688 15.890625 -1.515625 L 15.890625 -8 C 15.828125 -9.300781 15.097656 -9.953125 13.703125 -9.953125 C 12.296875 -9.953125 11.582031 -9.300781 11.5625 -8 L 11.5625 0 L 8.375 0 L 8.375 -8.046875 C 8.3125 -9.347656 7.582031 -10 6.1875 -10 Z M 6.1875 -10 "/></g></g></g><g fill="#ffffff" fill-opacity="1"><g transform="translate(69.389351, 28.938828)"><g><path d="M 11.953125 -3.859375 C 11.597656 -2.523438 10.976562 -1.5 10.09375 -0.78125 C 9.21875 -0.0703125 8.003906 0.28125 6.453125 0.28125 C 2.640625 0.15625 0.734375 -2.046875 0.734375 -6.328125 C 0.734375 -10.597656 2.65625 -12.75 6.5 -12.78125 C 10.5 -12.78125 12.378906 -10.320312 12.140625 -5.40625 L 4 -5.40625 C 4.125 -3.46875 4.957031 -2.5 6.5 -2.5 C 7.226562 -2.5 7.910156 -2.800781 8.546875 -3.40625 C 8.828125 -3.707031 9.179688 -3.859375 9.609375 -3.859375 Z M 6.453125 -10.1875 C 5.085938 -10.1875 4.285156 -9.34375 4.046875 -7.65625 L 8.78125 -7.65625 C 8.59375 -9.34375 7.816406 -10.1875 6.453125 -10.1875 Z M 6.453125 -10.1875 "/></g></g></g><g fill="#ffffff" fill-opacity="1"><g transform="translate(84.181293, 28.938828)"><g><path d="M 11.5625 0 L 9.953125 0 C 8.898438 -0.0820312 8.375 -0.609375 8.375 -1.578125 L 8.375 -8.046875 C 8.3125 -9.347656 7.582031 -10 6.1875 -10 C 4.769531 -10 4.054688 -9.347656 4.046875 -8.046875 L 4.046875 0 L 0.828125 0 L 0.828125 -7.40625 C 0.828125 -10.988281 2.628906 -12.78125 6.234375 -12.78125 C 9.804688 -12.78125 11.582031 -10.988281 11.5625 -7.40625 Z M 11.5625 0 "/></g></g></g><g fill="#b074d4" fill-opacity="1"><g transform="translate(98.364591, 28.938828)"><g><path d="M 1.859375 -2.5 L 3.515625 -2.5 L 3.515625 0 L 0.828125 0 L 0.828125 -1.578125 C 0.828125 -2.191406 1.171875 -2.5 1.859375 -2.5 Z M 1.859375 -2.5 "/></g></g></g><g fill="#b074d4" fill-opacity="1"><g transform="translate(104.73863, 28.938828)"><g><path d="M 6.453125 -12.78125 C 10.273438 -12.78125 12.1875 -10.597656 12.1875 -6.234375 C 12.1875 -1.890625 10.273438 0.28125 6.453125 0.28125 C 2.640625 0.28125 0.734375 -1.890625 0.734375 -6.234375 C 0.734375 -10.597656 2.640625 -12.78125 6.453125 -12.78125 Z M 6.453125 -10 C 4.785156 -10 3.953125 -8.742188 3.953125 -6.234375 C 3.984375 -3.773438 4.804688 -2.546875 6.421875 -2.546875 C 8.023438 -2.546875 8.84375 -3.804688 8.875 -6.328125 C 8.875 -8.773438 8.066406 -10 6.453125 -10 Z M 6.453125 -10 "/></g></g></g><g fill="#b074d4" fill-opacity="1"><g transform="translate(119.625691, 28.938828)"><g><path d="M 11.5625 0 L 9.953125 0 C 8.898438 -0.0820312 8.375 -0.609375 8.375 -1.578125 L 8.375 -8.046875 C 8.3125 -9.347656 7.582031 -10 6.1875 -10 C 4.769531 -10 4.054688 -9.347656 4.046875 -8.046875 L 4.046875 0 L 0.828125 0 L 0.828125 -7.40625 C 0.828125 -10.988281 2.628906 -12.78125 6.234375 -12.78125 C 9.804688 -12.78125 11.582031 -10.988281 11.5625 -7.40625 Z M 11.5625 0 "/></g></g></g><g fill="#b074d4" fill-opacity="1"><g transform="translate(133.799377, 28.938828)"><g><path d="M 11.953125 -3.859375 C 11.597656 -2.523438 10.976562 -1.5 10.09375 -0.78125 C 9.21875 -0.0703125 8.003906 0.28125 6.453125 0.28125 C 2.640625 0.15625 0.734375 -2.046875 0.734375 -6.328125 C 0.734375 -10.597656 2.65625 -12.75 6.5 -12.78125 C 10.5 -12.78125 12.378906 -10.320312 12.140625 -5.40625 L 4 -5.40625 C 4.125 -3.46875 4.957031 -2.5 6.5 -2.5 C 7.226562 -2.5 7.910156 -2.800781 8.546875 -3.40625 C 8.828125 -3.707031 9.179688 -3.859375 9.609375 -3.859375 Z M 6.453125 -10.1875 C 5.085938 -10.1875 4.285156 -9.34375 4.046875 -7.65625 L 8.78125 -7.65625 C 8.59375 -9.34375 7.816406 -10.1875 6.453125 -10.1875 Z M 6.453125 -10.1875 "/></g></g></g></svg>
