<svg xmlns="http://www.w3.org/2000/svg" xmlns:xlink="http://www.w3.org/1999/xlink" width="200" zoomAndPan="magnify" viewBox="0 0 150 46.499999" height="62" preserveAspectRatio="xMidYMid meet" version="1.0"><defs><g/></defs><g fill="#ffffff" fill-opacity="1"><g transform="translate(9.388674, 30.596013)"><g><path d="M 10.953125 -3.53125 C 10.628906 -2.3125 10.0625 -1.375 9.25 -0.71875 C 8.445312 -0.0625 7.332031 0.265625 5.90625 0.265625 C 2.414062 0.148438 0.671875 -1.867188 0.671875 -5.796875 C 0.671875 -9.710938 2.429688 -11.6875 5.953125 -11.71875 C 9.617188 -11.71875 11.34375 -9.460938 11.125 -4.953125 L 3.671875 -4.953125 C 3.785156 -3.179688 4.546875 -2.296875 5.953125 -2.296875 C 6.617188 -2.296875 7.242188 -2.570312 7.828125 -3.125 C 8.085938 -3.394531 8.414062 -3.53125 8.8125 -3.53125 Z M 5.90625 -9.328125 C 4.65625 -9.328125 3.921875 -8.5625 3.703125 -7.03125 L 8.046875 -7.03125 C 7.867188 -8.5625 7.15625 -9.328125 5.90625 -9.328125 Z M 5.90625 -9.328125 "/></g></g></g><g fill="#ffffff" fill-opacity="1"><g transform="translate(22.947839, 30.596013)"><g><path d="M 10.59375 0 L 9.125 0 C 8.15625 -0.0703125 7.671875 -0.550781 7.671875 -1.4375 L 7.671875 -7.375 C 7.617188 -8.5625 6.953125 -9.15625 5.671875 -9.15625 C 4.378906 -9.15625 3.722656 -8.5625 3.703125 -7.375 L 3.703125 0 L 0.765625 0 L 0.765625 -6.78125 C 0.765625 -10.070312 2.414062 -11.71875 5.71875 -11.71875 C 8.988281 -11.71875 10.613281 -10.070312 10.59375 -6.78125 Z M 10.59375 0 "/></g></g></g><g fill="#ffffff" fill-opacity="1"><g transform="translate(35.940287, 30.596013)"><g><path d="M 5.90625 -11.71875 C 9.414062 -11.71875 11.171875 -9.71875 11.171875 -5.71875 C 11.171875 -1.726562 9.414062 0.265625 5.90625 0.265625 C 2.414062 0.265625 0.671875 -1.726562 0.671875 -5.71875 C 0.671875 -9.71875 2.414062 -11.71875 5.90625 -11.71875 Z M 5.90625 -9.15625 C 4.382812 -9.15625 3.625 -8.007812 3.625 -5.71875 C 3.65625 -3.457031 4.410156 -2.328125 5.890625 -2.328125 C 7.359375 -2.328125 8.109375 -3.484375 8.140625 -5.796875 C 8.140625 -8.035156 7.394531 -9.15625 5.90625 -9.15625 Z M 5.90625 -9.15625 "/></g></g></g><g fill="#ffffff" fill-opacity="1"><g transform="translate(49.586646, 30.596013)"><g><path d="M 5.671875 -9.15625 C 4.378906 -9.15625 3.722656 -8.5625 3.703125 -7.375 L 3.703125 0 L 0.765625 0 L 0.765625 -6.78125 C 0.765625 -10.070312 2.414062 -11.71875 5.71875 -11.71875 C 7.1875 -11.71875 8.332031 -11.390625 9.15625 -10.734375 C 9.96875 -11.359375 11.117188 -11.671875 12.609375 -11.671875 C 15.890625 -11.671875 17.523438 -10.023438 17.515625 -6.734375 L 17.515625 0.046875 L 16.015625 0.046875 C 15.054688 -0.0234375 14.578125 -0.503906 14.578125 -1.390625 L 14.578125 -7.328125 C 14.515625 -8.523438 13.84375 -9.125 12.5625 -9.125 C 11.269531 -9.125 10.613281 -8.523438 10.59375 -7.328125 L 10.59375 0 L 7.671875 0 L 7.671875 -7.375 C 7.617188 -8.5625 6.953125 -9.15625 5.671875 -9.15625 Z M 5.671875 -9.15625 "/></g></g></g><g fill="#ffffff" fill-opacity="1"><g transform="translate(69.859271, 30.596013)"><g><path d="M 10.953125 -3.53125 C 10.628906 -2.3125 10.0625 -1.375 9.25 -0.71875 C 8.445312 -0.0625 7.332031 0.265625 5.90625 0.265625 C 2.414062 0.148438 0.671875 -1.867188 0.671875 -5.796875 C 0.671875 -9.710938 2.429688 -11.6875 5.953125 -11.71875 C 9.617188 -11.71875 11.34375 -9.460938 11.125 -4.953125 L 3.671875 -4.953125 C 3.785156 -3.179688 4.546875 -2.296875 5.953125 -2.296875 C 6.617188 -2.296875 7.242188 -2.570312 7.828125 -3.125 C 8.085938 -3.394531 8.414062 -3.53125 8.8125 -3.53125 Z M 5.90625 -9.328125 C 4.65625 -9.328125 3.921875 -8.5625 3.703125 -7.03125 L 8.046875 -7.03125 C 7.867188 -8.5625 7.15625 -9.328125 5.90625 -9.328125 Z M 5.90625 -9.328125 "/></g></g></g><g fill="#ffffff" fill-opacity="1"><g transform="translate(83.418437, 30.596013)"><g><path d="M 10.59375 0 L 9.125 0 C 8.15625 -0.0703125 7.671875 -0.550781 7.671875 -1.4375 L 7.671875 -7.375 C 7.617188 -8.5625 6.953125 -9.15625 5.671875 -9.15625 C 4.378906 -9.15625 3.722656 -8.5625 3.703125 -7.375 L 3.703125 0 L 0.765625 0 L 0.765625 -6.78125 C 0.765625 -10.070312 2.414062 -11.71875 5.71875 -11.71875 C 8.988281 -11.71875 10.613281 -10.070312 10.59375 -6.78125 Z M 10.59375 0 "/></g></g></g><g fill="#b074d4" fill-opacity="1"><g transform="translate(96.413851, 30.596013)"><g><path d="M 1.703125 -2.296875 L 3.234375 -2.296875 L 3.234375 0 L 0.765625 0 L 0.765625 -1.4375 C 0.765625 -2.007812 1.078125 -2.296875 1.703125 -2.296875 Z M 1.703125 -2.296875 "/></g></g></g><g fill="#b074d4" fill-opacity="1"><g transform="translate(102.256905, 30.596013)"><g><path d="M 5.90625 -11.71875 C 9.414062 -11.71875 11.171875 -9.71875 11.171875 -5.71875 C 11.171875 -1.726562 9.414062 0.265625 5.90625 0.265625 C 2.414062 0.265625 0.671875 -1.726562 0.671875 -5.71875 C 0.671875 -9.71875 2.414062 -11.71875 5.90625 -11.71875 Z M 5.90625 -9.15625 C 4.382812 -9.15625 3.625 -8.007812 3.625 -5.71875 C 3.65625 -3.457031 4.410156 -2.328125 5.890625 -2.328125 C 7.359375 -2.328125 8.109375 -3.484375 8.140625 -5.796875 C 8.140625 -8.035156 7.394531 -9.15625 5.90625 -9.15625 Z M 5.90625 -9.15625 "/></g></g></g><g fill="#b074d4" fill-opacity="1"><g transform="translate(115.903264, 30.596013)"><g><path d="M 10.59375 0 L 9.125 0 C 8.15625 -0.0703125 7.671875 -0.550781 7.671875 -1.4375 L 7.671875 -7.375 C 7.617188 -8.5625 6.953125 -9.15625 5.671875 -9.15625 C 4.378906 -9.15625 3.722656 -8.5625 3.703125 -7.375 L 3.703125 0 L 0.765625 0 L 0.765625 -6.78125 C 0.765625 -10.070312 2.414062 -11.71875 5.71875 -11.71875 C 8.988281 -11.71875 10.613281 -10.070312 10.59375 -6.78125 Z M 10.59375 0 "/></g></g></g><g fill="#b074d4" fill-opacity="1"><g transform="translate(128.895712, 30.596013)"><g><path d="M 10.953125 -3.53125 C 10.628906 -2.3125 10.0625 -1.375 9.25 -0.71875 C 8.445312 -0.0625 7.332031 0.265625 5.90625 0.265625 C 2.414062 0.148438 0.671875 -1.867188 0.671875 -5.796875 C 0.671875 -9.710938 2.429688 -11.6875 5.953125 -11.71875 C 9.617188 -11.71875 11.34375 -9.460938 11.125 -4.953125 L 3.671875 -4.953125 C 3.785156 -3.179688 4.546875 -2.296875 5.953125 -2.296875 C 6.617188 -2.296875 7.242188 -2.570312 7.828125 -3.125 C 8.085938 -3.394531 8.414062 -3.53125 8.8125 -3.53125 Z M 5.90625 -9.328125 C 4.65625 -9.328125 3.921875 -8.5625 3.703125 -7.03125 L 8.046875 -7.03125 C 7.867188 -8.5625 7.15625 -9.328125 5.90625 -9.328125 Z M 5.90625 -9.328125 "/></g></g></g></svg>