<svg xmlns="http://www.w3.org/2000/svg" xmlns:xlink="http://www.w3.org/1999/xlink" width="130" zoomAndPan="magnify" viewBox="0 0 97.5 30.000001" height="40" preserveAspectRatio="xMidYMid meet" version="1.2"><defs><clipPath id="b384226cef"><path d="M 95 20 L 95.683594 20 L 95.683594 21 L 95 21 Z M 95 20 "/></clipPath></defs><g id="7289e435c0"><g style="fill:#ffffff;fill-opacity:1;"><g transform="translate(2.319752, 20.322582)"><path style="stroke:none" d="M 11.671875 -3.765625 C 11.335938 -2.460938 10.738281 -1.460938 9.875 -0.765625 C 9.007812 -0.0664062 7.820312 0.28125 6.3125 0.28125 C 2.582031 0.15625 0.71875 -2 0.71875 -6.1875 C 0.71875 -10.363281 2.59375 -12.46875 6.34375 -12.5 C 10.257812 -12.5 12.097656 -10.09375 11.859375 -5.28125 L 3.90625 -5.28125 C 4.03125 -3.382812 4.84375 -2.4375 6.34375 -2.4375 C 7.0625 -2.4375 7.734375 -2.734375 8.359375 -3.328125 C 8.628906 -3.617188 8.976562 -3.765625 9.40625 -3.765625 Z M 6.3125 -9.953125 C 4.96875 -9.953125 4.179688 -9.128906 3.953125 -7.484375 L 8.578125 -7.484375 C 8.398438 -9.128906 7.644531 -9.953125 6.3125 -9.953125 Z M 6.3125 -9.953125 "/></g></g><g style="fill:#ffffff;fill-opacity:1;"><g transform="translate(16.788458, 20.322582)"><path style="stroke:none" d="M 11.3125 0 L 9.71875 0 C 8.695312 -0.0703125 8.1875 -0.582031 8.1875 -1.53125 L 8.1875 -7.859375 C 8.125 -9.128906 7.410156 -9.765625 6.046875 -9.765625 C 4.671875 -9.765625 3.972656 -9.128906 3.953125 -7.859375 L 3.953125 0 L 0.8125 0 L 0.8125 -7.234375 C 0.8125 -10.742188 2.570312 -12.5 6.09375 -12.5 C 9.582031 -12.5 11.320312 -10.742188 11.3125 -7.234375 Z M 11.3125 0 "/></g></g><g style="fill:#ffffff;fill-opacity:1;"><g transform="translate(30.652418, 20.322582)"><path style="stroke:none" d="M 6.3125 -12.5 C 10.039062 -12.5 11.90625 -10.363281 11.90625 -6.09375 C 11.90625 -1.84375 10.039062 0.28125 6.3125 0.28125 C 2.582031 0.28125 0.71875 -1.84375 0.71875 -6.09375 C 0.71875 -10.363281 2.582031 -12.5 6.3125 -12.5 Z M 6.3125 -9.765625 C 4.675781 -9.765625 3.859375 -8.539062 3.859375 -6.09375 C 3.890625 -3.6875 4.695312 -2.484375 6.28125 -2.484375 C 7.84375 -2.484375 8.640625 -3.71875 8.671875 -6.1875 C 8.671875 -8.570312 7.882812 -9.765625 6.3125 -9.765625 Z M 6.3125 -9.765625 "/></g></g><g style="fill:#ffffff;fill-opacity:1;"><g transform="translate(45.214164, 20.322582)"><path style="stroke:none" d="M 6.046875 -9.765625 C 4.671875 -9.765625 3.972656 -9.128906 3.953125 -7.859375 L 3.953125 0 L 0.8125 0 L 0.8125 -7.234375 C 0.8125 -10.742188 2.570312 -12.5 6.09375 -12.5 C 7.664062 -12.5 8.890625 -12.148438 9.765625 -11.453125 C 10.640625 -12.117188 11.867188 -12.453125 13.453125 -12.453125 C 16.953125 -12.453125 18.695312 -10.695312 18.6875 -7.1875 L 18.6875 0.046875 L 17.078125 0.046875 C 16.054688 -0.0234375 15.546875 -0.535156 15.546875 -1.484375 L 15.546875 -7.8125 C 15.484375 -9.082031 14.769531 -9.71875 13.40625 -9.71875 C 12.019531 -9.71875 11.320312 -9.082031 11.3125 -7.8125 L 11.3125 0 L 8.1875 0 L 8.1875 -7.859375 C 8.125 -9.128906 7.410156 -9.765625 6.046875 -9.765625 Z M 6.046875 -9.765625 "/></g></g><g style="fill:#ffffff;fill-opacity:1;"><g transform="translate(66.846886, 20.322582)"><path style="stroke:none" d="M 11.671875 -3.765625 C 11.335938 -2.460938 10.738281 -1.460938 9.875 -0.765625 C 9.007812 -0.0664062 7.820312 0.28125 6.3125 0.28125 C 2.582031 0.15625 0.71875 -2 0.71875 -6.1875 C 0.71875 -10.363281 2.59375 -12.46875 6.34375 -12.5 C 10.257812 -12.5 12.097656 -10.09375 11.859375 -5.28125 L 3.90625 -5.28125 C 4.03125 -3.382812 4.84375 -2.4375 6.34375 -2.4375 C 7.0625 -2.4375 7.734375 -2.734375 8.359375 -3.328125 C 8.628906 -3.617188 8.976562 -3.765625 9.40625 -3.765625 Z M 6.3125 -9.953125 C 4.96875 -9.953125 4.179688 -9.128906 3.953125 -7.484375 L 8.578125 -7.484375 C 8.398438 -9.128906 7.644531 -9.953125 6.3125 -9.953125 Z M 6.3125 -9.953125 "/></g></g><g style="fill:#ffffff;fill-opacity:1;"><g transform="translate(81.315592, 20.322582)"><path style="stroke:none" d="M 11.3125 0 L 9.71875 0 C 8.695312 -0.0703125 8.1875 -0.582031 8.1875 -1.53125 L 8.1875 -7.859375 C 8.125 -9.128906 7.410156 -9.765625 6.046875 -9.765625 C 4.671875 -9.765625 3.972656 -9.128906 3.953125 -7.859375 L 3.953125 0 L 0.8125 0 L 0.8125 -7.234375 C 0.8125 -10.742188 2.570312 -12.5 6.09375 -12.5 C 9.582031 -12.5 11.320312 -10.742188 11.3125 -7.234375 Z M 11.3125 0 "/></g></g><g clip-rule="nonzero" clip-path="url(#b384226cef)"><g style="fill:#ffffff;fill-opacity:1;"><g transform="translate(95.188954, 20.322582)"><path style="stroke:none" d=""/></g></g></g></g></svg>